<svg version="1.1"
     baseProfile="full"
     viewBox="0,0,2000,1000"
     xmlns="http://www.w3.org/2000/svg">

  <!--
  <rect x="0" y="0" width="1999" height="999" stroke="black" fill="white" />
  -->

  <line x1="100" y1="900" x2="900" y2="900" stroke="black" stroke-width="5" />
  <line x1="900" y1="900" x2="880" y2="880" stroke="black" stroke-width="5" />
  <line x1="900" y1="900" x2="880" y2="920" stroke="black" stroke-width="5" />

  <line x1="100" y1="900" x2="100" y2="100" stroke="black" stroke-width="5" />
  <line x1="100" y1="100" x2="120" y2="120" stroke="black" stroke-width="5" />
  <line x1="100" y1="100" x2="80" y2="120" stroke="black" stroke-width="5" />

  <text x="500" y="970" font-size="60" text-anchor="middle" fill="black">Corruption Resistant</text>
  <text x="500" y="960" font-size="60" text-anchor="middle" fill="black" transform="rotate(-90,60,960)">Confidential</text>

  <circle cx="200" cy="550" r="40" stroke="black" stroke-width="3" fill="white" />
  <text x="202" y="577" font-size="70" text-anchor="middle" fill="black">1</text>
  <circle cx="1122" cy="175" r="40" stroke="black" stroke-width="3" fill="white" />
  <text x="1100" y="200" font-size="70" text-anchor="left" fill="black">1 - Centralized Ledger</text>

  <line x1="280" y1="590" x2="520" y2="720" stroke="black" stroke-width="3" />

  <circle cx="600" cy="750" r="40" stroke="black" stroke-width="3" fill="white" />
  <text x="602" y="777" font-size="70" text-anchor="middle" fill="black">2</text>
  <circle cx="1122" cy="275" r="40" stroke="black" stroke-width="3" fill="white" />
  <text x="1100" y="300" font-size="70" text-anchor="left" fill="black">2 - Bitcoin</text>

  <line x1="620" y1="650" x2="680" y2="350" stroke="black" stroke-width="3" />

  <circle cx="700" cy="250" r="40" stroke="black" stroke-width="3" fill="white" />
  <text x="702" y="277" font-size="70" text-anchor="middle" fill="black">3</text>
  <circle cx="1122" cy="375" r="40" stroke="black" stroke-width="3" fill="white" />
  <text x="1100" y="400" font-size="70" text-anchor="left" fill="black">3 - Zerocash</text>

</svg>
